<svg width="162" height="307" viewBox="0 0 162 307" fill="none" xmlns="http://www.w3.org/2000/svg">
<path d="M108.229 252.332L102.11 263.966C101.918 264.325 101.906 266.04 101.931 266.449C101.97 267.064 99.8576 266.552 98.8976 266.283C99.2048 269.419 98.808 272.76 97.4 275.857L92.5232 286.622L88.5552 295.377C88.1968 296.157 86.9936 298.653 86.1872 298.589L83.3456 298.333L84.2288 302.16C84.4208 302.979 81.2721 301.764 80.7217 302.378L78.3408 305.104C77.8544 305.655 75.9729 303.21 75.9217 303.223L72.7472 306.154C72.12 306.743 70.328 305.053 70.3408 304.771L73.4385 301.712C68.0497 297.898 65.8865 294.263 63.5313 289.271L57.5665 276.612L51.5633 266.091L35.3968 220.883L16.6576 169.236L2.69287 133.769C2.37287 132.95 -0.238368 131.298 0.0176317 130.543L1.02884 127.458L1.56646 117.36C6.60966 116.745 8.05604 115.734 10.424 111.536L19.9344 116.528L23.7872 119.1C24.8112 119.792 28.216 118.166 28.856 117.526L30.6352 120.406C31.032 121.033 32.4529 119.28 33.1185 118.64C41.4641 126.23 44.3696 115.875 53.304 122.556L60.5233 75.5817L69.1504 10.3549L70.8656 6.09262C71.3008 5.00466 74.0912 5.23506 75.5376 5.29906C76.1008 3.30232 78.072 0.857574 80.1072 0L79.5568 4.32627L81.7072 2.31673C82.0144 2.03513 82.2449 2.3296 83.4865 3.67356C83.5889 6.05429 84.5616 6.22063 86.5456 3.30232L87.8384 11.1229L78.7633 81.9303L72.4785 119.011C79.0321 117.18 83.0384 118.512 88.3888 118.358L96.4529 118.14L109.726 119.126L122.757 119.638L126.776 120.009C127.787 120.099 128.299 121.801 128.517 122.415L137.912 121.647C141.496 125.756 146.13 128.163 150.43 128.227L150.482 124.169C150.482 123.606 152.76 123.849 152.952 124.028L152.453 126.985C152.325 127.753 152.862 129.814 153.016 129.775L155.32 125.027C155.717 124.207 157.893 124.028 158.904 124.988C163.013 128.93 162.245 137.801 159.582 143.432L139.614 185.722L135.787 193.965L125.752 215.801L125.074 208.621L121.874 215.289L125.304 216.416C126.021 216.646 124.28 219.04 123.922 219.769L117.496 233.26C117.189 233.9 113.63 233.081 113.874 233.362L116.357 236.114L108.254 252.37L108.229 252.332ZM96.44 218.118L104.325 196.602C105.554 193.236 106.834 190.292 109.598 187.809L111.954 181.127C112.12 180.718 113.451 180.001 113.797 180.282L116.331 182.407C115.704 179.604 115.243 178.26 113.31 173.755L122.795 168.724L118.955 165.832C118.2 165.256 120.978 162.901 121.515 162.094L123.294 159.432C123.538 159.061 124.434 160.417 125.266 161.595C125.586 163.515 126.264 163.016 126.763 160.968C125.342 158.165 124.651 154.939 125.573 152.418L127.915 157.256C128.171 157.794 128.466 157.55 129.042 156.757L131.435 154.939C131.832 154.645 131.512 153.032 131.064 153.198L128.312 154.223C128.146 154.248 127.134 149.73 128.21 149.154L132.997 146.607L132.165 139.106C124.216 134.946 118.046 139.221 115.371 132.745L114.309 135.983C114.155 136.444 112.363 135.817 111.774 135.817L75.5376 135.778L64.9008 136.764C55.096 137.673 44.8432 139.554 35.704 136.764C33.0928 135.97 28.408 136.265 24.0176 135.689L60.3568 231.967L64.9904 245.945L71.7872 262.802L75.6785 275.422C78.1361 271.902 80.3249 267.461 81.0033 263.621L82.3216 256.069L82.7313 253.458C82.7953 253.023 83.4865 253.138 83.7297 253.509L84.9584 255.416L85.6368 251.41C85.7776 250.591 88.0432 249.938 88.7344 249.708C87.3648 248.223 86.8528 245.292 87.6208 242.847L90.5136 233.695C90.8464 231.302 91.1664 228.972 92.5232 226.156L96.4144 218.092L96.44 218.118Z" fill="white"/>
</svg>
